<svg id="Layer_1" data-name="Layer 1" xmlns="http://www.w3.org/2000/svg" viewBox="0 0 290 300"><defs><style>.cls-1{fill:#f58431;}</style></defs><title>logo-nav-icon</title><path class="cls-1" d="M236.9,82.65,283.72,36.5A20.05,20.05,0,0,0,290,21.61a21.58,21.58,0,0,0-6.73-15.33A20.52,20.52,0,0,0,268.64,0a20.12,20.12,0,0,0-15,6.08L206.83,52.23l-30.46,30,30.08,30.42,46.42,46.94A20.36,20.36,0,0,0,267.63,166a20.73,20.73,0,0,0,15.07-6.4,21.51,21.51,0,0,0,6.49-14.75,19.61,19.61,0,0,0-5.88-15.26Z"/><path class="cls-1" d="M37.34,6.27A20.12,20.12,0,0,0,22.42,0,20.53,20.53,0,0,0,7.71,6.08,21.58,21.58,0,0,0,.78,21.33a20.05,20.05,0,0,0,6.09,15L53.1,83l-47,46.34A19.61,19.61,0,0,0,0,144.57a21.51,21.51,0,0,0,6.3,14.83,20.73,20.73,0,0,0,15,6.59,20.36,20.36,0,0,0,14.86-6.19l47-46.34,30.46-30L83.56,53Z"/><path class="cls-1" d="M166.4,171.58V104.7a20.05,20.05,0,0,0-6.2-14.93,20.52,20.52,0,0,0-14.75-6,21.65,21.65,0,0,0-15.65,6,20.05,20.05,0,0,0-6.2,14.93V279.08a20.3,20.3,0,0,0,6,14.9,20.74,20.74,0,0,0,15.23,6,21.58,21.58,0,0,0,15-5.94,19.61,19.61,0,0,0,6.55-15V171.58Z"/></svg>