<?xml version="1.0" encoding="UTF-8"?>
<svg width="15px" height="15px" viewBox="0 0 15 15" version="1.1" xmlns="http://www.w3.org/2000/svg" xmlns:xlink="http://www.w3.org/1999/xlink">
    <!-- Generator: Sketch 51.2 (57519) - http://www.bohemiancoding.com/sketch -->
    <title>sun</title>
    <desc>Created with Sketch.</desc>
    <defs></defs>
    <g id="Inspiration" stroke="none" stroke-width="1" fill="none" fill-rule="evenodd">
        <g id="Inspiration-page-home" transform="translate(-169.000000, -592.000000)" fill="#FFFFFF" fill-rule="nonzero">
            <g id="sun" transform="translate(169.000000, 592.000000)">
                <path d="M7.5,4 C5.57006454,4 4,5.57023515 4,7.5 C4,9.42976485 5.57006454,11 7.5,11 C9.42962603,11 11,9.43007426 11,7.5 C11,5.56992574 9.42962603,4 7.5,4 Z" id="Shape"></path>
                <g id="Group">
                    <path d="M7.36304348,2.59043478 C6.96554348,2.59043478 6.64336957,2.26826087 6.64336957,1.87108696 L6.64336957,0.719673913 C6.64336957,0.322173913 6.96554348,0 7.36304348,0 C7.76054348,0 8.08271739,0.322173913 8.08271739,0.719673913 L8.08271739,1.87108696 C8.08271739,2.26826087 7.76021739,2.59043478 7.36304348,2.59043478 Z" id="Shape"></path>
                    <path d="M7.36304348,12.1353261 C6.96554348,12.1353261 6.64336957,12.4575 6.64336957,12.855 L6.64336957,14.006087 C6.64336957,14.403913 6.96554348,14.726087 7.36304348,14.726087 C7.76054348,14.726087 8.08271739,14.403913 8.08271739,14.006087 L8.08271739,12.855 C8.08271739,12.4575 7.76021739,12.1353261 7.36304348,12.1353261 Z" id="Shape"></path>
                    <path d="M10.7373913,3.98836957 C10.4566304,3.70728261 10.4566304,3.25173913 10.7373913,2.97065217 L11.5516304,2.15641304 C11.8323913,1.87565217 12.2882609,1.87565217 12.5693478,2.15641304 C12.8504348,2.4375 12.8504348,2.89336957 12.5693478,3.17413043 L11.7551087,3.98836957 C11.4743478,4.26945652 11.0188043,4.26945652 10.7373913,3.98836957 Z" id="Shape"></path>
                    <path d="M3.98836957,10.7380435 C3.70728261,10.4566304 3.25173913,10.4566304 2.97065217,10.7380435 L2.15641304,11.5519565 C1.87565217,11.8327174 1.87532609,12.288913 2.15641304,12.5696739 C2.4375,12.8504348 2.89336957,12.8504348 3.17413043,12.5696739 L3.98836957,11.7551087 C4.26945652,11.4743478 4.26945652,11.0184783 3.98836957,10.7380435 Z" id="Shape"></path>
                    <path d="M12.1353261,7.36304348 C12.1353261,6.96554348 12.4575,6.64336957 12.855,6.64336957 L14.006413,6.64336957 C14.403913,6.64336957 14.726087,6.96554348 14.726087,7.36304348 C14.726087,7.76054348 14.403913,8.0823913 14.006413,8.0823913 L12.855,8.0823913 C12.4575,8.0823913 12.1353261,7.76054348 12.1353261,7.36304348 Z" id="Shape"></path>
                    <path d="M2.59043478,7.36304348 C2.59043478,6.96554348 2.26826087,6.64336957 1.87076087,6.64336957 L0.719673913,6.64336957 C0.322173913,6.64336957 0,6.96554348 0,7.36304348 C0,7.76054348 0.322173913,8.0823913 0.719673913,8.0823913 L1.87108696,8.0823913 C2.26826087,8.0823913 2.59043478,7.76054348 2.59043478,7.36304348 Z" id="Shape"></path>
                    <path d="M10.7373913,10.7380435 C11.0184783,10.4572826 11.4743478,10.4572826 11.7551087,10.7380435 L12.5693478,11.5522826 C12.8504348,11.8327174 12.8504348,12.288913 12.5693478,12.5696739 C12.2882609,12.8504348 11.8327174,12.8504348 11.5516304,12.5696739 L10.7373913,11.7554348 C10.4563043,11.4743478 10.4563043,11.0188043 10.7373913,10.7380435 Z" id="Shape"></path>
                    <path d="M3.98836957,3.98836957 C4.26945652,3.70728261 4.26945652,3.25173913 3.98836957,2.97065217 L3.17413043,2.15673913 C2.89304348,1.87565217 2.4375,1.87565217 2.15641304,2.15673913 C1.87532609,2.4375 1.87532609,2.89336957 2.15641304,3.17413043 L2.97065217,3.98836957 C3.25173913,4.26978261 3.70728261,4.26978261 3.98836957,3.98836957 Z" id="Shape"></path>
                </g>
            </g>
        </g>
    </g>
</svg>