<?xml version="1.0" encoding="UTF-8"?>
<svg width="12px" height="12px" viewBox="0 0 12 12" version="1.1" xmlns="http://www.w3.org/2000/svg" xmlns:xlink="http://www.w3.org/1999/xlink">
    <!-- Generator: Sketch 51.2 (57519) - http://www.bohemiancoding.com/sketch -->
    <title>Shape</title>
    <desc>Created with Sketch.</desc>
    <defs></defs>
    <g id="Inspiration" stroke="none" stroke-width="1" fill="none" fill-rule="evenodd">
        <g id="Inspiration-page-home" transform="translate(-774.000000, -593.000000)" fill="#FFFFFF" fill-rule="nonzero">
            <g id="Group-6" transform="translate(752.000000, 579.000000)">
                <g id="Group-2">
                    <g id="house-black-silhouette-without-door" transform="translate(22.154930, 14.000000)">
                        <path d="M11.6842198,5.54995189 C11.8987113,5.31570332 11.8779988,4.95667029 11.6379736,4.74823656 L6.34989655,0.153502331 C6.10987128,-0.0549313969 5.72505174,-0.0505650895 5.49007923,0.163345673 L0.184028263,4.99320939 C-0.0509442417,5.20712015 -0.0624768712,5.56569357 0.158494481,5.79377568 L0.291524712,5.93135267 C0.51222607,6.15943478 0.86896617,6.18662845 1.08781614,5.99190646 L1.48436116,5.63926968 L1.48436116,10.8019303 C1.48436116,11.1186791 1.74282321,11.3751039 2.0615712,11.3751039 L4.12988466,11.3751039 C4.44863265,11.3751039 4.70709469,11.1186791 4.70709469,10.8019303 L4.70709469,7.19015144 L7.34525118,7.19015144 L7.34525118,10.8019303 C7.34066127,11.1184493 7.56872963,11.3748741 7.88747762,11.3748741 L10.0793715,11.3748741 C10.3981195,11.3748741 10.6565815,11.1184493 10.6565815,10.8017005 L10.6565815,5.71196487 C10.6565815,5.71196487 10.7661222,5.80725762 10.9012353,5.92518622 C11.0361169,6.04288501 11.3194184,5.94851149 11.5339099,5.71403312 L11.6842198,5.54995189 Z" id="Shape"></path>
                    </g>
                </g>
            </g>
        </g>
    </g>
</svg>