<?xml version="1.0" encoding="UTF-8"?>
<svg width="11px" height="12px" viewBox="0 0 11 12" version="1.1" xmlns="http://www.w3.org/2000/svg" xmlns:xlink="http://www.w3.org/1999/xlink">
    <!-- Generator: Sketch 51.2 (57519) - http://www.bohemiancoding.com/sketch -->
    <title>Shape</title>
    <desc>Created with Sketch.</desc>
    <defs></defs>
    <g id="Inspiration" stroke="none" stroke-width="1" fill="none" fill-rule="evenodd">
        <g id="Inspiration-page-home" transform="translate(-341.000000, -592.000000)" fill="#FFFFFF" fill-rule="nonzero">
            <g id="crescent-moon-phase" transform="translate(341.000000, 592.000000)">
                <path d="M7.06246444,8.83142995 C5.17488782,8.57643053 3.66674085,6.93968401 3.46107329,4.92761593 C3.27184932,3.07658637 4.15489452,1.42548472 5.53149279,0.584012736 C5.79900787,0.420625187 5.68832044,-0.0152489471 5.38006453,0.00041120142 C5.03499461,0.0178983673 4.68280732,0.0706208673 4.32546607,0.162754741 C1.94531809,0.77845958 0.173582867,2.99097756 0.0125829624,5.59056222 C-0.0934707686,7.30521664 0.477652082,8.87822114 1.46936708,10.0367994 C2.50184217,11.242996 3.99019307,12 5.64487992,12 C8.11829003,12 10.2193879,10.308443 10.9824194,7.95341762 C11.0840261,7.63943165 10.7217763,7.4021804 10.49672,7.63238458 C9.62692785,8.520315 8.39684932,9.01152166 7.06246444,8.83142995 Z" id="Shape"></path>
            </g>
        </g>
    </g>
</svg>