<?xml version="1.0" encoding="UTF-8"?>
<svg width="11px" height="16px" viewBox="0 0 11 16" version="1.1" xmlns="http://www.w3.org/2000/svg" xmlns:xlink="http://www.w3.org/1999/xlink">
    <!-- Generator: Sketch 51.2 (57519) - http://www.bohemiancoding.com/sketch -->
    <title>forest</title>
    <desc>Created with Sketch.</desc>
    <defs></defs>
    <g id="Inspiration" stroke="none" stroke-width="1" fill="none" fill-rule="evenodd">
        <g id="Inspiration-page-home" transform="translate(-602.000000, -590.000000)" fill="#FFFFFF" fill-rule="nonzero">
            <g id="forest" transform="translate(602.000000, 590.000000)">
                <path d="M10.9216808,13.2268054 L10.9176524,13.220563 L8.25278647,9.26230109 L9.38408553,9.52044065 C9.56271776,9.56829865 9.75193901,9.50036718 9.86680688,9.34308445 C9.99145811,9.17221541 9.998364,8.93733169 9.8838414,8.75850672 L9.87958278,8.75165238 L7.41786496,5.18396572 L7.90449966,5.28665851 C8.07565051,5.33206855 8.25796588,5.27123621 8.37433005,5.12447981 C8.50519656,4.95924112 8.52108008,4.7250918 8.41392379,4.54186047 L5.89672868,0.23427171 C5.8107504,0.0875153077 5.66250407,0 5.49998558,0 C5.49987049,0 5.4997554,0 5.4996403,0 C5.33700669,0.000122399021 5.18876036,0.0878825126 5.10301229,0.234638915 L2.58616248,4.54198286 C2.47900616,4.725459 2.4950048,4.95948593 2.62587134,5.1246022 C2.74212039,5.27135864 2.92432067,5.33206855 3.09558662,5.28665851 L3.58222132,5.18396572 L1.12510742,8.74504285 L1.11612976,8.75850672 C1.00172227,8.93733169 1.00862816,9.17221541 1.13327939,9.34308445 C1.24814727,9.5004896 1.43748361,9.56829865 1.61600074,9.52044065 L2.7472998,9.26230109 L0.086462311,13.2144431 L0.0784054304,13.2268054 C-0.0293263762,13.398164 -0.0257583282,13.6257038 0.0873830957,13.7931456 C0.176353907,13.9247246 0.319996316,14 0.468012437,14 C0.508296781,14 0.548926398,13.9943697 0.58886544,13.9828641 L5.49998558,12.5717258 L10.4108755,13.9827417 C10.5979099,14.0368421 10.7995618,13.9604651 10.9127032,13.7931456 C11.0257295,13.6257038 11.0292975,13.398164 10.9216808,13.2268054 Z" id="Shape"></path>
                <path d="M4,14.3344941 L4,15.5566841 C4,15.8011221 4.27109568,16 4.6042955,16 L6.77108313,16 C7.10428294,16 7.37537862,15.8011221 7.37537862,15.5566841 L7.37537862,14.3344941 L5.68762339,14 L4,14.3344941 Z" id="Shape"></path>
            </g>
        </g>
    </g>
</svg>